<svg id="Ebene_1" data-name="Ebene 1" xmlns="http://www.w3.org/2000/svg" width="250mm" height="54.8mm" viewBox="0 0 708.66 155.35">
  <path d="M708.66,152.81V33H682v72.86L637,33H604.53V152.81h26.54V74l49.36,78.77Zm-131.36,0V127.46H527.94v-23h44.63V81H527.94V58.15h49.19V33h-75.9V152.81Zm-126.49,0h33.3L437.29,84.86,483.94,33H448.78L405,83.34V33H378.29V152.81H405V120.7l13.52-15ZM294.74,85.2V56.12h15.72c11,0,16.9,5.58,16.9,14.54,0,8.45-5.91,14.54-16.9,14.54Zm30.93,67.61h29.41L330.74,104.3c14.71-5.24,23.67-17.58,23.67-33.81,0-21.3-15.22-37.53-38.88-37.53H268V152.81h26.71V108.18h9.46ZM120.14,93c0,37.87,28.57,62.38,62.37,62.38,33.64,0,62.21-24.51,62.21-62.38,0-38-28.57-62.54-62.21-62.54-33.8,0-62.37,24.51-62.37,62.54m27.72-.17c0-25,17.92-36.34,34.65-36.34C199.08,56.46,217,67.78,217,92.8S199.08,129,182.51,129c-16.73,0-34.65-11.16-34.65-36.18m51.22-79.28a12.75,12.75,0,0,0,13.18,13c7.61,0,13.53-5.58,13.53-13A13.35,13.35,0,0,0,212.26,0c-7.6,0-13.18,5.91-13.18,13.52m-59.67,0a12.75,12.75,0,0,0,13.18,13,13,13,0,0,0,13.36-13A13.31,13.31,0,0,0,152.59,0C145,0,139.41,5.91,139.41,13.52M43.28,152.81c36.17,0,60.34-22.82,60.34-59.84S79.45,33,43.44,33H0V152.81ZM26.71,127.62V58.15H42.26C60.68,58.15,75.73,69,75.73,93s-15.05,34.65-33.47,34.65Z"/>
</svg>
