<?xml version="1.0" encoding="UTF-8"?><svg id="Ebene_1" xmlns="http://www.w3.org/2000/svg" viewBox="0 0 348 330"><defs><style>.cls-1{fill:#757f80;}.cls-1,.cls-2,.cls-3{fill-rule:evenodd;}.cls-1,.cls-2,.cls-3,.cls-4,.cls-5{stroke-width:0px;}.cls-3{fill:#e6eaea;}.cls-5{fill:#000094;}</style></defs><polygon class="cls-3" points="348 0 0 0 0 330 348 330 348 0 348 0"/><path class="cls-4" d="m137.92,50.36l1.52.23c.06.47.24.81.53,1.02.39.29.92.43,1.59.43.72,0,1.28-.15,1.67-.43.39-.29.66-.69.8-1.21.08-.32.12-.99.11-2-.68.8-1.53,1.2-2.55,1.2-1.27,0-2.25-.46-2.94-1.37-.69-.91-1.04-2.01-1.04-3.29,0-.88.16-1.69.48-2.43.32-.74.78-1.32,1.38-1.72.6-.4,1.31-.61,2.13-.61,1.09,0,1.98.44,2.69,1.32v-1.11h1.44v7.96c0,1.43-.15,2.45-.44,3.05-.29.6-.75,1.07-1.39,1.42-.63.35-1.41.52-2.34.52-1.1,0-1.99-.25-2.66-.74-.68-.49-1-1.24-.98-2.23h0Zm1.29-5.53c0,1.21.24,2.09.72,2.64s1.08.83,1.8.83,1.32-.28,1.8-.83c.48-.55.73-1.42.73-2.6s-.25-1.98-.75-2.55c-.5-.57-1.1-.86-1.81-.86s-1.28.28-1.77.84c-.49.56-.73,1.4-.73,2.51h0Z"/><path class="cls-4" d="m148.07,49.6v-9.21h1.4v1.4c.36-.65.69-1.08.99-1.29.3-.21.64-.31,1-.31.53,0,1.06.17,1.6.5l-.54,1.45c-.38-.23-.76-.34-1.14-.34-.34,0-.65.1-.92.31-.27.21-.46.49-.58.85-.17.55-.26,1.16-.26,1.82v4.82h-1.56Z"/><path class="cls-4" d="m153.42,44.99c0-1.71.47-2.97,1.42-3.79.79-.68,1.76-1.02,2.9-1.02,1.27,0,2.3.42,3.1,1.24.8.83,1.21,1.98,1.21,3.44,0,1.18-.18,2.12-.53,2.8-.35.68-.87,1.21-1.55,1.58-.68.38-1.42.56-2.22.56-1.29,0-2.33-.41-3.13-1.24-.79-.83-1.19-2.02-1.19-3.57h0Zm1.6,0c0,1.18.26,2.06.77,2.65.51.59,1.16.88,1.94.88s1.42-.29,1.93-.88c.51-.59.77-1.49.77-2.7,0-1.14-.26-2-.78-2.59-.52-.59-1.16-.88-1.93-.88s-1.43.29-1.94.88c-.52.58-.77,1.47-.77,2.65h0Z"/><path class="cls-4" d="m164.03,49.6v-8.66c0-1.06.13-1.87.39-2.44.26-.57.69-1.02,1.29-1.34.6-.32,1.28-.49,2.03-.49,1,0,1.79.25,2.36.75.57.5.86,1.08.86,1.74,0,.29-.05.6-.16.91-.1.31-.29.7-.55,1.17-.27.47-.43.79-.5.97-.07.18-.1.34-.1.48,0,.19.06.37.19.55.12.18.47.47,1.05.84.79.51,1.31.93,1.57,1.24.37.45.55.97.55,1.58,0,.8-.3,1.49-.89,2.06-.59.57-1.35.86-2.28.86-.73,0-1.37-.2-1.92-.58-.55-.39-.96-.89-1.23-1.51l1.34-.62c.29.54.58.91.87,1.12.29.21.59.31.91.31.44,0,.81-.15,1.13-.45.31-.3.47-.65.47-1.06,0-.32-.09-.6-.28-.83-.12-.15-.45-.41-.97-.76-.96-.66-1.55-1.15-1.78-1.48-.23-.33-.35-.67-.35-1.02,0-.22.04-.45.12-.68.08-.23.27-.6.56-1.11.3-.51.49-.89.58-1.14.09-.26.14-.48.14-.68,0-.36-.16-.67-.47-.95-.32-.28-.73-.41-1.26-.41-.62,0-1.12.19-1.52.57-.39.38-.59,1.21-.59,2.48v8.59h-1.56Z"/><path class="cls-4" d="m85.83,165.52c-.52.44-1.01.75-1.49.93-.48.18-.99.27-1.54.27-.9,0-1.6-.22-2.08-.66-.48-.44-.73-1-.73-1.69,0-.4.09-.77.28-1.1.18-.33.42-.6.72-.8.3-.2.63-.35,1-.46.27-.07.69-.14,1.24-.21,1.12-.14,1.95-.29,2.48-.48,0-.19,0-.31,0-.36,0-.57-.13-.97-.39-1.2-.36-.32-.88-.47-1.59-.47-.65,0-1.14.12-1.45.34-.31.23-.54.64-.69,1.22l-1.36-.19c.12-.58.33-1.05.61-1.41.28-.36.69-.63,1.23-.83.54-.19,1.16-.29,1.86-.29s1.27.08,1.71.25c.44.17.76.37.97.62.21.25.35.56.43.95.05.24.07.67.07,1.28v1.86c0,1.29.03,2.11.09,2.46.06.34.18.67.35.99h-1.45c-.14-.29-.24-.63-.28-1.01h0Zm-.12-3.11c-.51.21-1.26.38-2.27.53-.57.08-.98.18-1.22.28-.24.1-.42.25-.55.45-.13.2-.19.42-.19.66,0,.37.14.68.42.93.28.25.69.37,1.23.37s1.01-.12,1.43-.35c.42-.23.72-.55.92-.96.15-.31.22-.78.22-1.39v-.51h0Z"/><path class="cls-4" d="m90.19,169.86h-1c1.54-2.48,2.31-4.95,2.31-7.43,0-.97-.11-1.93-.33-2.88-.18-.77-.42-1.52-.73-2.23-.2-.46-.62-1.24-1.24-2.32h1c.97,1.29,1.69,2.59,2.15,3.9.4,1.12.6,2.3.6,3.53,0,1.39-.27,2.74-.8,4.04-.53,1.3-1.18,2.43-1.95,3.4h0Z"/><path class="cls-4" d="m86.25,298.59l1.37.18c-.15.94-.53,1.68-1.15,2.22-.62.53-1.37.8-2.27.8-1.12,0-2.03-.37-2.71-1.1-.68-.74-1.02-1.79-1.02-3.16,0-.89.15-1.66.44-2.33.29-.67.74-1.16,1.34-1.5.6-.33,1.25-.5,1.96-.5.89,0,1.62.22,2.19.68.57.45.93,1.09,1.09,1.92l-1.35.21c-.13-.55-.36-.97-.68-1.24-.33-.28-.72-.42-1.19-.42-.7,0-1.27.25-1.71.75-.44.5-.66,1.3-.66,2.39s.21,1.91.63,2.41c.42.5.98.75,1.65.75.55,0,1-.17,1.37-.5.37-.33.6-.85.7-1.55h0Z"/><path class="cls-4" d="m89.73,304.93h-1c1.54-2.48,2.31-4.95,2.31-7.43,0-.97-.11-1.93-.33-2.89-.17-.77-.42-1.52-.73-2.23-.2-.46-.62-1.24-1.24-2.32h1c.97,1.29,1.69,2.59,2.15,3.9.4,1.12.6,2.3.6,3.53,0,1.39-.27,2.74-.8,4.04-.53,1.3-1.18,2.43-1.94,3.4h0Z"/><path class="cls-4" d="m249.86,300.1v-1.04c-.52.81-1.29,1.22-2.3,1.22-.66,0-1.26-.18-1.81-.54-.55-.36-.97-.87-1.28-1.51-.3-.65-.45-1.39-.45-2.23s.14-1.56.41-2.23c.27-.67.68-1.18,1.23-1.54.55-.36,1.16-.53,1.83-.53.49,0,.94.1,1.32.31.39.21.7.48.94.82v-4.07h1.39v11.34h-1.29Zm-4.4-4.1c0,1.05.22,1.84.66,2.36.44.52.97.78,1.57.78s1.12-.25,1.55-.75c.43-.5.64-1.26.64-2.28,0-1.12-.22-1.95-.65-2.48-.43-.53-.97-.79-1.6-.79s-1.14.25-1.55.76c-.41.5-.62,1.3-.62,2.39h0Z"/><path class="cls-4" d="m254.25,303.43h-1c1.54-2.48,2.31-4.95,2.31-7.43,0-.97-.11-1.93-.33-2.89-.18-.77-.42-1.52-.73-2.23-.2-.46-.62-1.24-1.24-2.32h1c.97,1.29,1.69,2.59,2.15,3.9.4,1.12.6,2.3.6,3.53,0,1.39-.27,2.74-.8,4.04-.53,1.3-1.18,2.43-1.94,3.4h0Z"/><path class="cls-4" d="m245.76,166.1h-1.29v-11.34h1.39v4.04c.59-.74,1.34-1.11,2.25-1.11.51,0,.98.1,1.44.3.45.2.82.49,1.11.86.29.37.52.81.68,1.33s.25,1.08.25,1.67c0,1.41-.35,2.5-1.04,3.26-.7.77-1.53,1.15-2.51,1.15s-1.73-.41-2.28-1.21v1.03h0Zm-.02-4.17c0,.98.13,1.7.4,2.13.44.72,1.03,1.08,1.78,1.08.61,0,1.14-.26,1.58-.79.44-.53.66-1.32.66-2.36s-.21-1.86-.64-2.37c-.43-.51-.94-.77-1.54-.77s-1.13.27-1.58.79c-.44.53-.67,1.29-.67,2.29h0Z"/><path class="cls-4" d="m254.19,169.43h-1c1.54-2.48,2.31-4.95,2.31-7.43,0-.97-.11-1.93-.33-2.89-.18-.77-.42-1.52-.74-2.23-.2-.46-.62-1.24-1.24-2.32h1c.97,1.29,1.69,2.59,2.15,3.9.4,1.12.6,2.3.6,3.53,0,1.39-.27,2.74-.8,4.04-.53,1.3-1.18,2.43-1.95,3.4h0Z"/><polygon class="cls-4" points="148.47 21.71 148.47 9 151.04 9 151.04 14.64 156.23 9 159.68 9 154.89 13.95 159.94 21.71 156.62 21.71 153.12 15.75 151.04 17.87 151.04 21.71 148.47 21.71 148.47 21.71"/><path class="cls-4" d="m160.68,16.98c0-.81.2-1.59.6-2.35.4-.76.96-1.33,1.7-1.73.73-.4,1.55-.6,2.45-.6,1.39,0,2.54.45,3.42,1.36.89.9,1.34,2.05,1.34,3.43s-.45,2.55-1.35,3.47c-.9.92-2.03,1.37-3.39,1.37-.84,0-1.65-.19-2.42-.57-.77-.38-1.35-.94-1.75-1.68-.4-.74-.6-1.64-.6-2.69h0Zm2.5.13c0,.91.22,1.61.65,2.1.43.49.97.73,1.6.73s1.17-.24,1.6-.73c.43-.49.65-1.19.65-2.12s-.22-1.6-.65-2.08c-.43-.49-.96-.73-1.6-.73s-1.17.24-1.6.73c-.43.48-.65,1.18-.65,2.1h0Z"/><path class="cls-4" d="m174.43,21.71h-2.44v-9.21h2.26v1.31c.39-.62.73-1.03,1.04-1.22.31-.2.66-.3,1.05-.3.55,0,1.09.15,1.61.46l-.76,2.12c-.41-.27-.79-.4-1.15-.4s-.63.09-.87.28c-.24.19-.42.53-.56,1.02-.14.49-.2,1.52-.2,3.09v2.84h0Z"/><path class="cls-4" d="m178.9,21.71v-12.71h2.44v4.58c.75-.86,1.64-1.28,2.67-1.28,1.12,0,2.05.41,2.78,1.22.73.81,1.1,1.98,1.1,3.5s-.38,2.78-1.12,3.63c-.75.85-1.66,1.28-2.73,1.28-.53,0-1.04-.13-1.56-.39-.51-.26-.95-.65-1.32-1.17v1.35h-2.26Zm2.42-4.8c0,.95.15,1.66.45,2.12.42.65.98.97,1.68.97.54,0,.99-.23,1.37-.69.38-.46.57-1.18.57-2.17,0-1.05-.19-1.81-.57-2.28-.38-.47-.87-.7-1.47-.7s-1.07.23-1.46.68c-.39.45-.58,1.14-.58,2.07h0Z"/><path class="cls-4" d="m198.3,21.71h-2.26v-1.35c-.38.53-.82.92-1.33,1.17-.51.26-1.03.39-1.55.39-1.06,0-1.96-.43-2.72-1.28-.76-.85-1.13-2.04-1.13-3.57s.37-2.75,1.1-3.56c.74-.81,1.66-1.22,2.78-1.22,1.03,0,1.92.43,2.67,1.28v-4.58h2.44v12.71h0Zm-6.5-4.8c0,.98.14,1.69.41,2.13.39.64.94.95,1.65.95.56,0,1.04-.24,1.43-.71.39-.48.59-1.19.59-2.14,0-1.06-.19-1.82-.57-2.29-.38-.47-.87-.7-1.47-.7s-1.06.23-1.45.69c-.39.46-.58,1.15-.58,2.06h0Z"/><path class="cls-4" d="m206.77,21.71v-1.38c-.34.49-.78.88-1.32,1.16-.55.28-1.12.43-1.73.43s-1.17-.14-1.67-.41c-.49-.27-.85-.65-1.07-1.14-.22-.49-.33-1.17-.33-2.04v-5.83h2.44v4.23c0,1.3.04,2.09.13,2.38.09.29.25.52.49.69.24.17.54.26.9.26.42,0,.79-.11,1.12-.34.33-.23.55-.51.68-.85.12-.34.18-1.17.18-2.49v-3.89h2.44v9.21h-2.26Z"/><path class="cls-4" d="m213.88,21.71h-2.44v-9.21h2.26v1.31c.39-.62.73-1.03,1.04-1.22.31-.2.66-.3,1.05-.3.55,0,1.09.15,1.6.46l-.76,2.12c-.41-.27-.79-.4-1.14-.4s-.63.09-.87.28c-.24.19-.42.53-.56,1.02-.14.49-.2,1.52-.2,3.09v2.84h0Z"/><path class="cls-4" d="m226.49,15.23l-2.4.43c-.08-.48-.27-.84-.55-1.08-.29-.24-.66-.36-1.11-.36-.61,0-1.09.21-1.45.63-.36.42-.54,1.12-.54,2.1,0,1.09.18,1.86.55,2.32.37.45.86.68,1.48.68.46,0,.84-.13,1.14-.39.29-.26.5-.72.62-1.36l2.39.41c-.25,1.1-.73,1.93-1.43,2.49-.71.56-1.65.84-2.84.84-1.35,0-2.42-.43-3.22-1.28-.8-.85-1.2-2.03-1.2-3.53s.4-2.7,1.21-3.55c.8-.85,1.89-1.27,3.26-1.27,1.12,0,2.01.24,2.68.72.66.48,1.14,1.22,1.43,2.21h0Z"/><path class="cls-4" d="m230.77,9v4.67c.79-.92,1.73-1.38,2.82-1.38.56,0,1.07.1,1.52.31.45.21.79.47,1.02.8.23.32.38.68.47,1.08.08.39.13,1,.13,1.83v5.4h-2.44v-4.87c0-.96-.05-1.58-.14-1.84-.09-.26-.26-.47-.49-.62-.23-.15-.53-.23-.88-.23-.41,0-.77.1-1.08.3-.32.2-.55.49-.7.89-.15.4-.22.98-.22,1.76v4.61h-2.44v-12.71h2.44Z"/><path class="cls-4" d="m239.01,12.5h2.25v1.26c.8-.98,1.76-1.47,2.87-1.47.59,0,1.1.12,1.54.36.43.24.79.61,1.07,1.1.4-.49.84-.86,1.31-1.1.47-.24.97-.36,1.5-.36.68,0,1.25.14,1.72.41.47.28.82.68,1.05,1.21.17.39.25,1.03.25,1.91v5.89h-2.44v-5.26c0-.91-.08-1.5-.25-1.77-.23-.35-.57-.52-1.04-.52-.34,0-.66.1-.96.31-.3.21-.52.51-.65.92-.13.4-.2,1.04-.2,1.9v4.42h-2.44v-5.05c0-.9-.04-1.47-.13-1.73-.09-.26-.22-.45-.4-.58-.18-.13-.43-.19-.74-.19-.38,0-.71.1-1.01.3-.3.2-.52.49-.65.88-.13.38-.2,1.02-.2,1.9v4.48h-2.44v-9.21h0Z"/><path class="cls-4" d="m260.31,18.78l2.43.41c-.31.89-.8,1.57-1.48,2.03-.67.46-1.52.7-2.53.7-1.6,0-2.79-.52-3.55-1.57-.61-.84-.91-1.9-.91-3.17,0-1.53.4-2.72,1.2-3.59.8-.87,1.81-1.3,3.03-1.3,1.37,0,2.45.45,3.24,1.36.79.9,1.17,2.29,1.14,4.16h-6.1c.02.72.21,1.29.59,1.69.38.4.84.6,1.41.6.38,0,.7-.1.96-.31.26-.21.46-.54.59-1.01h0Zm.14-2.46c-.02-.7-.2-1.24-.55-1.61-.35-.37-.77-.55-1.27-.55-.53,0-.97.19-1.32.58-.35.39-.52.91-.51,1.58h3.64Z"/><path class="cls-4" d="m264,19.09l2.45-.37c.1.47.32.83.63,1.08.32.25.76.37,1.34.37.63,0,1.1-.12,1.42-.35.21-.16.32-.38.32-.65,0-.19-.06-.34-.17-.46-.12-.12-.39-.22-.82-.32-1.97-.43-3.21-.83-3.74-1.19-.73-.5-1.09-1.19-1.09-2.07,0-.8.32-1.47.95-2.01.63-.54,1.61-.82,2.93-.82s2.2.21,2.81.62c.61.41,1.03,1.02,1.27,1.82l-2.3.42c-.1-.36-.29-.63-.56-.82-.27-.19-.67-.29-1.17-.29-.64,0-1.1.09-1.38.27-.18.13-.28.29-.28.49,0,.17.08.32.24.44.22.16.98.39,2.28.69,1.3.29,2.2.66,2.72,1.08.51.43.76,1.04.76,1.81,0,.84-.35,1.57-1.06,2.18-.71.61-1.75.91-3.13.91-1.26,0-2.25-.25-2.98-.76-.73-.51-1.21-1.2-1.43-2.07h0Z"/><path class="cls-4" d="m273.88,19.09l2.45-.37c.1.47.32.83.63,1.08s.76.37,1.34.37c.63,0,1.1-.12,1.42-.35.21-.16.32-.38.32-.65,0-.19-.06-.34-.17-.46-.12-.12-.39-.22-.82-.32-1.97-.43-3.21-.83-3.74-1.19-.73-.5-1.09-1.19-1.09-2.07,0-.8.32-1.47.95-2.01.63-.54,1.61-.82,2.93-.82s2.2.21,2.81.62c.61.41,1.03,1.02,1.27,1.82l-2.3.42c-.1-.36-.28-.63-.56-.82-.27-.19-.67-.29-1.17-.29-.64,0-1.1.09-1.38.27-.19.13-.28.29-.28.49,0,.17.08.32.24.44.22.16.98.39,2.28.69,1.3.29,2.2.66,2.72,1.08.51.43.76,1.04.76,1.81,0,.84-.35,1.57-1.06,2.18-.71.61-1.75.91-3.13.91-1.25,0-2.25-.25-2.98-.76-.73-.51-1.21-1.2-1.43-2.07h0Z"/><path class="cls-4" d="m289.95,18.78l2.43.41c-.31.89-.81,1.57-1.48,2.03-.67.46-1.52.7-2.53.7-1.6,0-2.79-.52-3.56-1.57-.61-.84-.91-1.9-.91-3.17,0-1.53.4-2.72,1.2-3.59.8-.87,1.81-1.3,3.03-1.3,1.37,0,2.45.45,3.24,1.36.79.9,1.17,2.29,1.14,4.16h-6.1c.02.72.21,1.29.59,1.69.38.4.84.6,1.4.6.38,0,.7-.1.96-.31.26-.21.46-.54.59-1.01h0Zm.14-2.46c-.02-.7-.2-1.24-.55-1.61-.35-.37-.77-.55-1.27-.55-.53,0-.97.19-1.32.58-.35.39-.52.91-.51,1.58h3.64Z"/><path class="cls-4" d="m296.82,21.71h-2.44v-9.21h2.26v1.31c.39-.62.73-1.03,1.04-1.22.31-.2.66-.3,1.05-.3.55,0,1.09.15,1.6.46l-.75,2.12c-.41-.27-.79-.4-1.15-.4s-.63.09-.87.28c-.24.19-.42.53-.56,1.02-.14.49-.2,1.52-.2,3.09v2.84h0Z"/><path class="cls-4" d="m16,273v-4.69c0-1.06.08-1.86.24-2.42.22-.75.61-1.39,1.17-1.92.56-.53,1.25-.94,2.06-1.21.81-.28,1.81-.42,3.01-.42,1.05,0,1.95.13,2.71.39.92.32,1.67.77,2.25,1.36.43.44.77,1.05,1.01,1.8.18.57.27,1.32.27,2.27v4.83h-12.71Zm2.15-2.57h8.42v-1.92c0-.72-.04-1.23-.12-1.55-.1-.42-.28-.76-.53-1.04-.25-.28-.66-.5-1.23-.67-.57-.17-1.35-.26-2.33-.26s-1.74.09-2.26.26c-.53.17-.94.42-1.23.73-.29.31-.49.71-.6,1.19-.08.36-.12,1.06-.12,2.11v1.15h0Z"/><path class="cls-4" d="m28.71,257.85v2.44h-9.21v-2.26h1.31c-.62-.39-1.03-.74-1.22-1.04-.2-.31-.29-.66-.29-1.05,0-.55.15-1.09.46-1.6l2.12.75c-.27.41-.4.79-.4,1.14s.09.63.28.87c.19.24.53.42,1.02.56.49.14,1.52.2,3.09.2h2.84Z"/><path class="cls-4" d="m25.78,247.94l.41-2.43c.89.31,1.57.81,2.03,1.48.46.67.7,1.52.7,2.53,0,1.6-.52,2.79-1.57,3.55-.84.61-1.9.91-3.17.91-1.53,0-2.72-.4-3.59-1.2-.86-.8-1.3-1.81-1.3-3.03,0-1.37.45-2.45,1.36-3.24.91-.79,2.29-1.17,4.16-1.14v6.1c.72-.02,1.29-.21,1.69-.59.4-.38.6-.84.6-1.4,0-.38-.1-.7-.31-.96-.21-.26-.54-.46-1.01-.59h0Zm-2.46-.14c-.7.02-1.24.2-1.61.55-.37.35-.55.77-.55,1.27,0,.53.19.97.58,1.32.39.35.91.52,1.58.51v-3.64h0Z"/><path class="cls-4" d="m16,240.97h4.67c-.92-.79-1.38-1.73-1.38-2.82,0-.56.1-1.07.31-1.52.21-.45.47-.79.8-1.02.32-.23.68-.38,1.08-.47.39-.08,1-.13,1.83-.13h5.4v2.44h-4.86c-.97,0-1.58.05-1.84.14-.26.09-.47.26-.62.49-.15.23-.23.53-.23.88,0,.4.1.77.3,1.08.2.32.49.55.89.7s.98.22,1.76.22h4.61v2.44h-12.71v-2.44h0Z"/><path class="cls-4" d="m29.32,232.77l.34-2.78c.32-.05.55-.15.67-.32.17-.23.26-.6.26-1.09,0-.64-.1-1.11-.29-1.43-.13-.21-.33-.38-.62-.49-.2-.08-.58-.11-1.12-.11h-1.34c.99.73,1.49,1.65,1.49,2.76,0,1.24-.52,2.22-1.57,2.94-.83.57-1.85.85-3.09.85-1.54,0-2.72-.37-3.54-1.11-.82-.74-1.22-1.67-1.22-2.77s.5-2.08,1.5-2.82h-1.29v-2.28h8.26c1.09,0,1.9.09,2.44.27.54.18.96.43,1.27.75.31.32.55.76.72,1.3.17.54.26,1.22.26,2.05,0,1.56-.27,2.67-.8,3.32-.53.65-1.21.98-2.03.98-.08,0-.18,0-.29,0h0Zm-5.4-2.18c.98,0,1.69-.19,2.15-.57.45-.38.68-.85.68-1.4,0-.59-.23-1.1-.7-1.51-.47-.41-1.15-.62-2.07-.62s-1.66.2-2.12.59c-.46.39-.69.89-.69,1.49s.23,1.07.68,1.44c.45.38,1.15.57,2.08.57h0Z"/><path class="cls-4" d="m25.78,216.36l.41-2.43c.89.31,1.57.8,2.03,1.48.46.67.7,1.52.7,2.53,0,1.6-.52,2.79-1.57,3.56-.84.61-1.9.91-3.17.91-1.53,0-2.72-.4-3.59-1.2-.86-.8-1.3-1.81-1.3-3.03,0-1.37.45-2.45,1.36-3.24.91-.79,2.29-1.17,4.16-1.14v6.1c.72-.02,1.29-.21,1.69-.59.4-.38.6-.84.6-1.4,0-.38-.1-.7-.31-.96-.21-.26-.54-.46-1.01-.59h0Zm-2.46-.14c-.7.02-1.24.2-1.61.55-.37.35-.55.77-.55,1.27,0,.53.19.97.58,1.32.39.35.91.52,1.58.51v-3.64h0Z"/><path class="cls-4" d="m26.08,212.68l-.37-2.45c.48-.1.83-.31,1.08-.63.25-.32.37-.76.37-1.34,0-.63-.12-1.1-.35-1.42-.16-.21-.38-.32-.65-.32-.18,0-.34.06-.46.17-.12.12-.22.39-.32.82-.43,1.97-.83,3.21-1.19,3.74-.5.73-1.19,1.09-2.07,1.09-.8,0-1.47-.32-2.01-.95-.54-.63-.81-1.61-.81-2.93s.21-2.2.62-2.81c.41-.61,1.02-1.04,1.82-1.27l.42,2.3c-.36.1-.63.29-.82.56-.19.27-.29.67-.29,1.18,0,.64.09,1.1.27,1.38.13.19.29.28.49.28.17,0,.32-.08.44-.24.16-.22.39-.98.69-2.28.29-1.3.66-2.2,1.08-2.72.43-.51,1.04-.76,1.81-.76.84,0,1.57.35,2.18,1.06.61.71.91,1.75.91,3.13,0,1.25-.25,2.25-.76,2.98-.51.73-1.2,1.21-2.07,1.44h0Z"/><path class="cls-4" d="m22.23,193.91l.43,2.4c-.48.08-.84.26-1.08.55s-.36.66-.36,1.11c0,.61.21,1.09.63,1.45.42.36,1.12.54,2.1.54,1.09,0,1.86-.18,2.32-.55.45-.37.68-.86.68-1.48,0-.46-.13-.84-.39-1.14-.26-.3-.72-.5-1.36-.62l.41-2.39c1.1.25,1.93.73,2.49,1.43.56.71.84,1.65.84,2.84,0,1.35-.43,2.42-1.28,3.22-.85.8-2.03,1.2-3.53,1.2s-2.7-.4-3.55-1.21c-.85-.8-1.27-1.89-1.27-3.26,0-1.12.24-2.01.72-2.67.48-.66,1.22-1.14,2.21-1.43h0Z"/><path class="cls-4" d="m16,189.64h4.67c-.92-.79-1.38-1.73-1.38-2.82,0-.56.1-1.07.31-1.52.21-.45.47-.79.8-1.02.32-.23.68-.38,1.08-.47.39-.08,1-.13,1.83-.13h5.4v2.44h-4.86c-.97,0-1.58.05-1.84.14-.26.09-.47.26-.62.49-.15.23-.23.53-.23.88,0,.41.1.77.3,1.08.2.32.49.55.89.7.4.15.98.22,1.76.22h4.61v2.44h-12.71v-2.44h0Z"/><polygon class="cls-4" points="28.71 179.5 19.5 182.41 19.5 180.05 25.54 178.32 19.5 176.73 19.5 174.38 25.54 172.85 19.5 171.09 19.5 168.69 28.71 171.64 28.71 173.98 22.79 175.57 28.71 177.13 28.71 179.5 28.71 179.5"/><path class="cls-4" d="m18.25,167.4h-2.26v-2.44h2.26v2.44h0Zm10.46,0h-9.21v-2.44h9.21v2.44h0Z"/><path class="cls-4" d="m28.71,154.09v2.44h-4.7c-1,0-1.64.05-1.93.16s-.52.27-.68.51c-.16.24-.24.52-.24.85,0,.42.12.8.35,1.14.23.34.54.57.92.69.38.13,1.09.19,2.12.19h4.17v2.44h-9.21v-2.26h1.35c-1.04-.8-1.56-1.82-1.56-3.03,0-.54.1-1.03.29-1.47.19-.45.44-.78.74-1.01.3-.23.64-.39,1.02-.48.38-.09.93-.14,1.64-.14h5.72Z"/><path class="cls-4" d="m28.71,143.17v2.26h-1.35c.53.38.92.82,1.18,1.33.26.51.39,1.03.39,1.55,0,1.06-.43,1.96-1.28,2.72-.85.76-2.04,1.13-3.57,1.13s-2.75-.37-3.56-1.1c-.81-.73-1.22-1.66-1.22-2.78,0-1.03.43-1.92,1.28-2.67h-4.58v-2.44h12.71Zm-4.8,6.5c.98,0,1.69-.14,2.13-.41.64-.39.95-.94.95-1.65,0-.56-.24-1.04-.71-1.43-.48-.39-1.19-.59-2.14-.59-1.06,0-1.82.19-2.29.57-.47.38-.7.87-.7,1.46s.23,1.06.69,1.45c.46.39,1.15.59,2.06.59h0Z"/><path class="cls-4" d="m18.25,140.77h-2.26v-2.44h2.26v2.44h0Zm10.46,0h-9.21v-2.44h9.21v2.44h0Z"/><path class="cls-4" d="m29.32,136.06l.34-2.78c.32-.05.55-.15.67-.32.17-.23.26-.6.26-1.09,0-.64-.1-1.11-.29-1.43-.13-.21-.33-.38-.62-.49-.2-.08-.58-.11-1.12-.11h-1.34c.99.73,1.49,1.65,1.49,2.76,0,1.24-.52,2.22-1.57,2.94-.83.57-1.85.85-3.09.85-1.54,0-2.72-.37-3.54-1.11-.82-.74-1.22-1.67-1.22-2.77s.5-2.08,1.5-2.82h-1.29v-2.28h8.26c1.09,0,1.9.09,2.44.27.54.18.96.43,1.27.75.31.32.55.76.72,1.3.17.54.26,1.22.26,2.05,0,1.56-.27,2.67-.8,3.32-.53.65-1.21.98-2.03.98-.08,0-.18,0-.29,0h0Zm-5.4-2.18c.98,0,1.69-.19,2.15-.57.45-.38.68-.85.68-1.4,0-.59-.23-1.1-.7-1.51-.47-.41-1.15-.61-2.07-.61s-1.66.2-2.12.59c-.46.39-.69.89-.69,1.49s.23,1.07.68,1.44c.45.38,1.15.57,2.08.57h0Z"/><polygon class="cls-4" points="28.71 125.07 16 125.07 16 122.64 22.75 122.64 19.5 119.78 19.5 116.78 22.87 119.93 28.71 116.56 28.71 119.19 24.58 121.5 25.76 122.64 28.71 122.64 28.71 125.07 28.71 125.07"/><path class="cls-4" d="m25.78,109.78l.41-2.43c.89.31,1.57.81,2.03,1.48.46.67.7,1.52.7,2.53,0,1.6-.52,2.79-1.57,3.56-.84.61-1.9.91-3.17.91-1.53,0-2.72-.4-3.59-1.2-.86-.8-1.3-1.81-1.3-3.03,0-1.37.45-2.45,1.36-3.24.91-.79,2.29-1.17,4.16-1.14v6.11c.72-.02,1.29-.21,1.69-.59.4-.38.6-.84.6-1.4,0-.38-.1-.7-.31-.96-.21-.26-.54-.46-1.01-.59h0Zm-2.46-.14c-.7.02-1.24.2-1.61.55-.37.35-.55.77-.55,1.27,0,.53.19.97.58,1.32.39.35.91.52,1.58.51v-3.64h0Z"/><path class="cls-4" d="m18.25,105.23h-2.26v-2.44h2.26v2.44h0Zm10.46,0h-9.21v-2.44h9.21v2.44h0Z"/><path class="cls-4" d="m19.5,96.08h1.94v1.66h3.71c.75,0,1.19-.01,1.31-.05.12-.03.23-.1.31-.22.08-.11.12-.25.12-.41,0-.23-.08-.55-.23-.98l1.89-.21c.24.57.36,1.21.36,1.92,0,.44-.07.84-.22,1.19-.15.35-.34.61-.57.78-.24.16-.55.28-.95.34-.28.05-.86.08-1.72.08h-4.02v1.12h-1.94v-1.12h-1.83l-1.42-2.45h3.25v-1.66h0Z"/><polygon class="cls-4" points="278.88 50 278.88 37.29 280.44 37.29 280.44 44.54 284.13 40.79 286.15 40.79 282.63 44.21 286.51 50 284.58 50 281.54 45.29 280.44 46.35 280.44 50 278.88 50 278.88 50"/><polygon class="cls-4" points="287.71 50 287.71 37.29 289.27 37.29 289.27 50 287.71 50 287.71 50"/><path class="cls-4" d="m298,47.03l1.61.2c-.26.94-.73,1.67-1.41,2.19-.69.52-1.57.78-2.64.78-1.35,0-2.41-.41-3.2-1.24-.79-.83-1.18-1.99-1.18-3.49s.4-2.75,1.2-3.61c.8-.86,1.83-1.28,3.1-1.28s2.24.42,3.02,1.26c.78.84,1.17,2.02,1.17,3.54,0,.09,0,.23,0,.42h-6.87c.06,1.01.34,1.79.86,2.32.52.54,1.16.81,1.93.81.57,0,1.06-.15,1.46-.45.41-.3.73-.78.96-1.44h0Zm-5.13-2.52h5.14c-.07-.77-.27-1.36-.59-1.74-.5-.6-1.14-.9-1.93-.9-.72,0-1.32.24-1.81.72-.49.48-.76,1.12-.81,1.92h0Z"/><path class="cls-4" d="m301.58,39.08v-1.8h1.56v1.8h-1.56Zm0,10.92v-9.21h1.56v9.21h-1.56Z"/><path class="cls-4" d="m305.52,50v-9.21h1.41v1.31c.68-1.01,1.65-1.52,2.93-1.52.55,0,1.07.1,1.53.3.47.2.81.46,1.04.78.23.32.39.71.49,1.15.06.29.09.79.09,1.52v5.66h-1.56v-5.6c0-.64-.06-1.11-.18-1.43-.12-.32-.34-.57-.65-.75-.31-.19-.67-.28-1.09-.28-.67,0-1.24.21-1.72.63-.48.42-.72,1.22-.72,2.4v5.03h-1.56Z"/><path class="cls-4" d="m56.79,138.13h-12.71v-1.56h4.56c-.84-.73-1.27-1.65-1.27-2.76,0-.68.13-1.28.4-1.78.27-.5.64-.86,1.12-1.08.47-.22,1.16-.33,2.06-.33h5.84v1.56h-5.84c-.78,0-1.35.17-1.7.51-.36.34-.53.82-.53,1.43,0,.46.12.9.36,1.3.24.41.56.7.98.87.41.17.98.26,1.7.26h5.04v1.56h0Z"/><path class="cls-4" d="m52.19,128.84c-1.71,0-2.97-.47-3.79-1.42-.68-.79-1.02-1.76-1.02-2.9,0-1.27.42-2.3,1.24-3.11.83-.8,1.97-1.2,3.44-1.2,1.18,0,2.12.18,2.8.53.68.36,1.21.87,1.58,1.55.38.68.56,1.42.56,2.22,0,1.29-.41,2.33-1.24,3.13-.83.8-2.02,1.19-3.57,1.19h0Zm0-1.6c1.18,0,2.06-.26,2.65-.77.59-.51.88-1.16.88-1.94s-.3-1.42-.89-1.93c-.59-.52-1.49-.77-2.7-.77-1.14,0-2,.26-2.59.78-.59.52-.88,1.16-.88,1.93s.29,1.43.88,1.94c.58.51,1.47.77,2.65.77h0Z"/><path class="cls-4" d="m53.42,112.37l.2-1.53c1.06.17,1.89.6,2.48,1.29.6.69.9,1.54.9,2.54,0,1.26-.41,2.27-1.24,3.04-.82.77-2,1.15-3.54,1.15-.99,0-1.86-.17-2.61-.49-.75-.33-1.31-.83-1.68-1.51-.37-.67-.56-1.41-.56-2.2,0-1,.25-1.82.76-2.45s1.22-1.04,2.16-1.22l.23,1.52c-.62.15-1.08.4-1.4.77-.31.37-.47.81-.47,1.33,0,.79.28,1.43.85,1.92.56.49,1.46.74,2.67.74s2.14-.24,2.7-.71c.56-.48.84-1.09.84-1.86,0-.61-.19-1.12-.56-1.54-.38-.41-.95-.67-1.73-.78h0Z"/><path class="cls-4" d="m56.79,109.5h-12.71v-1.56h4.56c-.84-.73-1.27-1.65-1.27-2.76,0-.68.13-1.27.4-1.78.27-.5.64-.86,1.12-1.08.47-.22,1.16-.33,2.06-.33h5.84v1.56h-5.84c-.78,0-1.35.17-1.7.51-.36.34-.53.82-.53,1.44,0,.46.12.9.36,1.3.24.41.56.7.98.87.41.17.98.26,1.7.26h5.04v1.56h0Z"/><path class="cls-4" d="m57.5,276.01h-9.21v-1.4h1.29c-.45-.29-.81-.67-1.09-1.15-.27-.48-.41-1.03-.41-1.64,0-.68.14-1.24.43-1.68.28-.44.68-.75,1.19-.92-1.08-.73-1.61-1.68-1.61-2.84,0-.91.25-1.62.76-2.11.51-.49,1.28-.74,2.34-.74h6.32v1.55h-5.8c-.62,0-1.07.05-1.35.15-.27.1-.5.29-.66.55-.17.27-.25.58-.25.94,0,.65.22,1.19.65,1.61.43.43,1.12.64,2.07.64h5.35v1.56h-5.98c-.69,0-1.21.13-1.56.38-.35.25-.52.67-.52,1.25,0,.44.12.85.35,1.22.23.37.57.64,1.02.81.45.17,1.09.25,1.92.25h4.78v1.56h0Z"/><path class="cls-4" d="m46.58,261.21h-1.8v-1.56h1.8v1.56h0Zm10.92,0h-9.21v-1.56h9.21v1.56h0Z"/><path class="cls-4" d="m56.1,253.86l1.38-.23c.09.44.14.83.14,1.18,0,.57-.09,1.01-.27,1.32-.18.31-.42.53-.71.66-.29.13-.91.19-1.84.19h-5.3v1.15h-1.21v-1.15h-2.28l-.94-1.55h3.22v-1.57h1.21v1.57h5.39c.45,0,.73-.03.86-.08.13-.06.23-.14.3-.27.08-.12.11-.3.11-.53,0-.17-.02-.4-.06-.69h0Z"/><path class="cls-4" d="m56.1,248.93l1.38-.23c.09.44.14.83.14,1.18,0,.57-.09,1.01-.27,1.32-.18.31-.42.53-.71.66-.29.13-.91.19-1.84.19h-5.3v1.14h-1.21v-1.14h-2.28l-.94-1.55h3.22v-1.57h1.21v1.57h5.39c.45,0,.73-.03.86-.08.13-.06.23-.14.3-.27.08-.12.11-.3.11-.53,0-.17-.02-.4-.06-.68h0Z"/><path class="cls-4" d="m54.53,241.1l.2-1.61c.94.25,1.67.73,2.19,1.41.52.69.78,1.57.78,2.64,0,1.35-.41,2.41-1.24,3.2-.83.79-1.99,1.18-3.49,1.18s-2.75-.4-3.61-1.2c-.86-.8-1.28-1.83-1.28-3.1s.42-2.24,1.26-3.02c.84-.78,2.02-1.17,3.54-1.17.09,0,.23,0,.42,0v6.87c1.01-.06,1.79-.34,2.32-.86.54-.51.81-1.16.81-1.92,0-.57-.15-1.06-.45-1.46-.3-.4-.78-.73-1.44-.96h0Zm-2.52,5.12v-5.14c-.77.07-1.36.27-1.74.59-.6.5-.9,1.14-.9,1.93,0,.72.24,1.32.72,1.81.48.49,1.12.76,1.92.81h0Z"/><polygon class="cls-4" points="57.5 237.56 44.79 237.56 44.79 236 57.5 236 57.5 237.56 57.5 237.56"/><polygon class="cls-1" points="210.63 67 99 67 99 67.28 210.63 67.28 210.63 67 210.63 67"/><polygon class="cls-1" points="213.5 200.07 96 200.07 96 200.36 213.5 200.36 213.5 200.07 213.5 200.07"/><polygon class="cls-1" points="333.09 67 260.37 67 260.37 67.28 333.09 67.28 333.09 67 333.09 67"/><polygon class="cls-1" points="333.09 200.36 259.25 200.36 259.25 200.64 333.09 200.64 333.09 200.36 333.09 200.36"/><polygon class="cls-1" points="213.5 174.5 96 174.5 96 67 99 67 99 89 128.5 89 128.5 171 181 171 181 89 210.5 89 210.5 67 213.5 67 213.5 174.5 213.5 174.5"/><polygon class="cls-1" points="213.5 311.5 96 311.5 96 200.36 99 200.36 99 247 155 299 210.5 247 210.5 200.36 213.5 200.36 213.5 311.5 213.5 311.5"/><polygon class="cls-1" points="333.09 311.5 259.25 311.5 259.25 200.38 261.13 200.36 261.13 244 297 282 331.21 244 331.21 200.36 333.09 200.36 333.09 311.5 333.09 311.5"/><polygon class="cls-1" points="333.09 174.5 259.25 174.5 259.25 67 261.13 67 261.13 89 291 89 290 171 303 171 303 89 331.21 89 331.21 67 333.09 67 333.09 174.5 333.09 174.5"/><path class="cls-2" d="m234.09,308.99v2.93h1.83v-2.93h-1.83Zm0-5.49v3.66h1.83v-3.66h-1.83Zm0-5.49v3.66h1.83v-3.66h-1.83Zm0-5.49v3.66h1.83v-3.66h-1.83Zm0-5.49v3.66h1.83v-3.66h-1.83Zm0-5.49v3.66h1.83v-3.66h-1.83Zm0-5.49v3.66h1.83v-3.66h-1.83Zm0-5.49v3.66h1.83v-3.66h-1.83Zm0-5.49v3.66h1.83v-3.66h-1.83Zm0-5.49v3.66h1.83v-3.66h-1.83Zm0-5.49v3.66h1.83v-3.66h-1.83Zm0-5.49v3.66h1.83v-3.66h-1.83Zm0-5.49v3.66h1.83v-3.66h-1.83Zm0-5.49v3.66h1.83v-3.66h-1.83Zm0-5.49v3.66h1.83v-3.66h-1.83Zm0-5.49v3.66h1.83v-3.66h-1.83Zm0-5.49v3.66h1.83v-3.66h-1.83Zm0-5.49v3.66h1.83v-3.66h-1.83Zm0-5.49v3.66h1.83v-3.66h-1.83Zm0-5.49v3.66h1.83v-3.66h-1.83Zm0-5.49v3.66h1.83v-3.66h-1.83Zm0-5.49v3.66h1.83v-3.66h-1.83Zm0-5.49v3.66h1.83v-3.66h-1.83Zm0-5.49v3.66h1.83v-3.66h-1.83Zm0-5.49v3.66h1.83v-3.66h-1.83Zm0-5.49v3.66h1.83v-3.66h-1.83Zm0-5.49v3.66h1.83v-3.66h-1.83Zm0-5.49v3.66h1.83v-3.66h-1.83Zm0-5.49v3.66h1.83v-3.66h-1.83Zm0-5.49v3.66h1.83v-3.66h-1.83Zm0-5.49v3.66h1.83v-3.66h-1.83Zm0-5.49v3.66h1.83v-3.66h-1.83Zm0-5.49v3.66h1.83v-3.66h-1.83Zm0-5.49v3.66h1.83v-3.66h-1.83Zm0-5.49v3.66h1.83v-3.66h-1.83Zm0-5.49v3.66h1.83v-3.66h-1.83Zm0-5.49v3.66h1.83v-3.66h-1.83Zm0-5.49v3.66h1.83v-3.66h-1.83Zm0-5.49v3.66h1.83v-3.66h-1.83Zm0-5.49v3.66h1.83v-3.66h-1.83Zm0-5.49v3.66h1.83v-3.66h-1.83Zm0-5.49v3.66h1.83v-3.66h-1.83Zm0-5.49v3.66h1.83v-3.66h-1.83Zm0-5.49v3.66h1.83v-3.66h-1.83Zm0-5.49v3.66h1.83v-3.66h-1.83Zm0-5.49v3.66h1.83v-3.66h-1.83Zm0-5.49v3.66h1.83v-3.66h-1.83Zm0-5.49v3.66h1.83v-3.66h-1.83Zm0-5.49v3.66h1.83v-3.66h-1.83Zm0-5.49v3.66h1.83v-3.66h-1.83Z"/><path class="cls-2" d="m54.8,185.58h-3.47v1.83h3.47v-1.83h0Zm285.36,0h-3.66v1.83h3.66v-1.83h0Zm-279.88,0h-3.66v1.83h3.66v-1.83h0Zm186.58,0h-3.66v1.83h3.66v-1.83h0Zm21.95,0h-3.66v1.83h3.66v-1.83h0Zm-131.71,0h-3.66v1.83h3.66v-1.83h0Zm126.22,0h-3.66v1.83h3.66v-1.83h0Zm-5.49,0h-3.66v1.83h3.66v-1.83h0Zm-5.49,0h-3.66v1.83h3.66v-1.83h0Zm-10.97,0h-3.66v1.83h3.66v-1.83h0Zm-10.98,0h-3.66v1.83h3.66v-1.83h0Zm-87.8,0h-3.66v1.83h3.66v-1.83h0Zm148.17,0h-3.66v1.83h3.66v-1.83h0Zm-5.49,0h-3.66v1.83h3.66v-1.83h0Zm-5.49,0h-3.66v1.83h3.66v-1.83h0Zm-5.49,0h-3.66v1.83h3.66v-1.83h0Zm-38.41,0h-3.66v1.83h3.66v-1.83h0Zm-137.2,0h-3.66v1.83h3.66v-1.83h0Zm120.73,0h-3.66v1.83h3.66v-1.83h0Zm76.83,0h-3.66v1.83h3.66v-1.83h0Zm-164.63,0h-3.66v1.83h3.66v-1.83h0Zm-5.49,0h-3.66v1.83h3.66v-1.83h0Zm54.88,0h-3.66v1.83h3.66v-1.83h0Zm43.9,0h-3.66v1.83h3.66v-1.83h0Zm-16.46,0h-3.66v1.83h3.66v-1.83h0Zm-5.49,0h-3.66v1.83h3.66v-1.83h0Zm-137.19,0h-3.66v1.83h3.66v-1.83h0Zm16.46,0h-3.66v1.83h3.66v-1.83h0Zm225,0h-3.66v1.83h3.66v-1.83h0Zm5.49,0h-3.66v1.83h3.66v-1.83h0Zm-208.53,0h-3.66v1.83h3.66v-1.83h0Zm5.49,0h-3.66v1.83h3.66v-1.83h0Zm5.49,0h-3.66v1.83h3.66v-1.83h0Zm5.49,0h-3.66v1.83h3.66v-1.83h0Zm203.05,0h-3.66v1.83h3.66v-1.83h0Zm-5.49,0h-3.66v1.83h3.66v-1.83h0Zm-16.46,0h-3.66v1.83h3.66v-1.83h0Zm27.44,0h-3.66v1.83h3.66v-1.83h0Zm-137.2,0h-3.66v1.83h3.66v-1.83h0Zm-21.95,0h-3.66v1.83h3.66v-1.83h0Zm5.49,0h-3.66v1.83h3.66v-1.83h0Zm10.97,0h-3.66v1.83h3.66v-1.83h0Zm-93.29,0h-3.66v1.83h3.66v-1.83h0Zm-5.49,0h-3.66v1.83h3.66v-1.83h0Zm-10.98,0h-3.66v1.83h3.66v-1.83h0Zm-5.49,0h-3.66v1.83h3.66v-1.83h0Zm263.41,0h-3.66v1.83h3.66v-1.83h0Zm-120.73,0h-3.66v1.83h3.66v-1.83h0Zm-16.46,0h-3.66v1.83h3.66v-1.83h0Zm-43.9,0h-3.66v1.83h3.66v-1.83h0Zm5.49,0h-3.66v1.83h3.66v-1.83h0Zm5.49,0h-3.66v1.83h3.66v-1.83h0Zm-16.46,0h-3.66v1.83h3.66v-1.83h0Z"/><path class="cls-5" d="m209.33,164.42c-.16,0-.31-.06-.43-.18-.24-.24-.24-.62,0-.86l1.39-1.39-1.39-1.39c-.24-.24-.24-.62,0-.86.24-.24.62-.24.86,0l2.25,2.25-2.25,2.25c-.12.12-.27.18-.43.18Z"/><path class="cls-5" d="m211.14,162.61h-29.64c-.33,0-.61-.27-.61-.61s.27-.61.61-.61h29.64c.33,0,.61.27.61.61s-.27.61-.61.61Z"/><path class="cls-5" d="m209.33,301.42c-.16,0-.31-.06-.43-.18-.24-.24-.24-.62,0-.86l1.39-1.39-1.39-1.39c-.24-.24-.24-.62,0-.86s.62-.24.86,0l2.25,2.25-2.25,2.25c-.12.12-.27.18-.43.18Z"/><path class="cls-5" d="m211.14,299.61h-55.39c-.33,0-.61-.27-.61-.61s.27-.61.61-.61h55.39c.33,0,.61.27.61.61s-.27.61-.61.61Z"/><path class="cls-5" d="m327.83,164.42c-.16,0-.31-.06-.43-.18-.24-.24-.24-.62,0-.86l1.39-1.39-1.39-1.39c-.24-.24-.24-.62,0-.86.24-.24.62-.24.86,0l2.25,2.25-2.25,2.25c-.12.12-.27.18-.43.18Z"/><path class="cls-5" d="m329.64,162.61h-26.14c-.33,0-.61-.27-.61-.61s.27-.61.61-.61h26.14c.33,0,.61.27.61.61s-.27.61-.61.61Z"/><path class="cls-5" d="m327.33,301.42c-.16,0-.31-.06-.43-.18-.24-.24-.24-.62,0-.86l1.39-1.39-1.39-1.39c-.24-.24-.24-.62,0-.86s.62-.24.86,0l2.25,2.25-2.25,2.25c-.12.12-.27.18-.43.18Z"/><path class="cls-5" d="m329.14,299.61h-32.14c-.33,0-.61-.27-.61-.61s.27-.61.61-.61h32.14c.33,0,.61.27.61.61s-.27.61-.61.61Z"/></svg>