<svg id="Ebene_1" data-name="Ebene 1" xmlns="http://www.w3.org/2000/svg" xmlns:xlink="http://www.w3.org/1999/xlink" viewBox="0 0 192.75 133"><defs><style>.cls-1{fill:none;}.cls-2{fill:#11384b;}.cls-3{clip-path:url(#clip-path);}.cls-4{fill:#cbcbcc;}.cls-5{clip-path:url(#clip-path-2);}</style><clipPath id="clip-path" transform="translate(0 -10.44)"><rect class="cls-1" width="192.76" height="140.88"/></clipPath><clipPath id="clip-path-2" transform="translate(0 -10.44)"><rect class="cls-1" y="10.45" width="192.76" height="130.44"/></clipPath></defs><path class="cls-2" d="M0,20.15H192.75v-1H0Zm0-8.71H192.75v-1H0Z" transform="translate(0 -10.44)"/><g class="cls-3"><path class="cls-4" d="M131.35,19.54a6.19,6.19,0,0,1-6.19,6.19h0A6.19,6.19,0,0,1,119,19.54h0a6.19,6.19,0,0,1,6.19-6.19h0a6.19,6.19,0,0,1,6.19,6.19h0" transform="translate(0 -10.44)"/></g><g class="cls-5"><path class="cls-2" d="M125.16,26.23a6.69,6.69,0,1,1,6.69-6.69A6.69,6.69,0,0,1,125.16,26.23Zm0-12.38a5.69,5.69,0,1,0,5.7,5.69A5.69,5.69,0,0,0,125.16,13.85Z" transform="translate(0 -10.44)"/></g><path class="cls-4" d="M76.32,19.54a6.19,6.19,0,1,1-6.19-6.19,6.19,6.19,0,0,1,6.19,6.19" transform="translate(0 -10.44)"/><path class="cls-2" d="M70.13,26.23a6.69,6.69,0,1,1,6.69-6.69A6.7,6.7,0,0,1,70.13,26.23Zm0-12.38a5.69,5.69,0,1,0,5.69,5.69A5.69,5.69,0,0,0,70.13,13.85Z" transform="translate(0 -10.44)"/><path class="cls-4" d="M70.21,23.29a3.75,3.75,0,0,1,0-7.5h54.87a3.75,3.75,0,1,1,0,7.5Z" transform="translate(0 -10.44)"/><path class="cls-2" d="M125.08,16.29a3.25,3.25,0,1,1,0,6.5H70.21a3.25,3.25,0,0,1,0-6.5Zm0-1H70.21A4.24,4.24,0,0,0,66,19.53h0a4.24,4.24,0,0,0,4.24,4.24h54.87a4.24,4.24,0,1,0,0-8.47" transform="translate(0 -10.44)"/><rect class="cls-4" x="93.74" y="9.43" width="7.82" height="7.82"/><path class="cls-2" d="M101.08,27.2H94.24V20.36h6.84Zm1-7.83H93.25v8.82h8.83Z" transform="translate(0 -10.44)"/><rect class="cls-4" x="93.74" y="29.34" width="7.82" height="7.82"/><path class="cls-2" d="M101.08,47.11H94.24V40.28h6.84Zm1-7.82H93.25V48.1h8.83Z" transform="translate(0 -10.44)"/><line class="cls-1" x1="97.65" y1="16.76" x2="97.65" y2="33.25"/><rect class="cls-2" x="97.15" y="16.76" width="0.99" height="16.49"/><path class="cls-2" d="M96.65,43.69a1,1,0,1,0,1-1,1,1,0,0,0-1,1" transform="translate(0 -10.44)"/><rect class="cls-4" x="65.97" y="37.24" width="63.36" height="5.54"/><path class="cls-2" d="M129.82,53.71H65.47V47.18h64.35Zm-63.35-1h62.36V48.17H66.47Z" transform="translate(0 -10.44)"/><line class="cls-1" x1="75" y1="47.76" x2="75" y2="42.78"/><rect class="cls-2" x="74.51" y="42.78" width="0.99" height="4.98"/><line class="cls-1" x1="97.65" y1="47.86" x2="97.65" y2="42.78"/><rect class="cls-2" x="97.15" y="42.78" width="0.99" height="5.08"/><line class="cls-1" x1="120.3" y1="47.86" x2="120.3" y2="42.78"/><rect class="cls-2" x="119.81" y="42.78" width="0.99" height="5.08"/><path class="cls-4" d="M75,112.06h0a7,7,0,0,1-7-7V65.35a7,7,0,0,1,14.1,0V105a7,7,0,0,1-7,7" transform="translate(0 -10.44)"/><path class="cls-2" d="M75,112.55a7.48,7.48,0,0,1-7.49-7.44V65.35a7.55,7.55,0,0,1,15.1,0V105a7.49,7.49,0,0,1-7.45,7.54H75Zm.06-1h.08A6.49,6.49,0,0,0,81.55,105V65.35a6.56,6.56,0,0,0-13.11,0v39.71a6.5,6.5,0,0,0,6.56,6.5Z" transform="translate(0 -10.44)"/><path class="cls-4" d="M97.65,112.06h0a7,7,0,0,1-7-7V65.35a7,7,0,1,1,14.1,0V105a7,7,0,0,1-7,7h0" transform="translate(0 -10.44)"/><path class="cls-2" d="M97.8,112.56h-.15a7.51,7.51,0,0,1-7.5-7.49V65.35a7.56,7.56,0,0,1,7.55-7.54h0a7.55,7.55,0,0,1,7.54,7.54V105A7.49,7.49,0,0,1,97.8,112.56ZM97.7,58.8a6.56,6.56,0,0,0-6.55,6.55v39.71a6.5,6.5,0,0,0,6.5,6.5h.15a6.52,6.52,0,0,0,6.45-6.56V65.35A6.56,6.56,0,0,0,97.7,58.8Z" transform="translate(0 -10.44)"/><path class="cls-4" d="M120.3,112.06h0a7,7,0,0,1-7-7V65.35a7.05,7.05,0,0,1,14.1,0h0V105a7,7,0,0,1-7,7" transform="translate(0 -10.44)"/><path class="cls-2" d="M120.45,112.56h-.15a7.5,7.5,0,0,1-7.49-7.49V65.35a7.55,7.55,0,1,1,15.09,0V105a7.51,7.51,0,0,1-7.45,7.55Zm-.1-53.76a6.56,6.56,0,0,0-6.55,6.55v39.71a6.5,6.5,0,0,0,6.5,6.5h.15a6.51,6.51,0,0,0,4.58-1.94A6.44,6.44,0,0,0,126.9,105V65.35A6.56,6.56,0,0,0,120.35,58.8Z" transform="translate(0 -10.44)"/><path class="cls-2" d="M21.08,142.45H13.37V59.29h7.71Zm1-84.15h-9.7v85.14h9.7Z" transform="translate(0 -10.44)"/><path class="cls-2" d="M42.81,91.13H35.08V76.6H42.8Zm1-15.52H34.08v16.5h9.7Z" transform="translate(0 -10.44)"/><rect class="cls-4" x="23.82" y="62.73" width="3.86" height="25.78" transform="translate(-45.93 29.91) rotate(-45)"/><path class="cls-2" d="M18,65.86l17.53,17.5-2,2L16,67.86Zm0-1.4-3.43,3.4L33.49,86.79l3.43-3.43Z" transform="translate(0 -10.44)"/><path class="cls-4" d="M23.42,67.16A6.19,6.19,0,1,1,17.23,61h0a6.19,6.19,0,0,1,6.19,6.19" transform="translate(0 -10.44)"/><path class="cls-2" d="M17.23,73.85a6.69,6.69,0,1,1,6.69-6.69A6.69,6.69,0,0,1,17.23,73.85Zm0-12.39a5.7,5.7,0,1,0,5.69,5.7A5.7,5.7,0,0,0,17.23,61.46Z" transform="translate(0 -10.44)"/><path class="cls-4" d="M20.63,67.16a3.4,3.4,0,1,1-3.4-3.4,3.4,3.4,0,0,1,3.4,3.4h0" transform="translate(0 -10.44)"/><path class="cls-2" d="M17.23,71.06a3.9,3.9,0,1,1,3.9-3.9A3.91,3.91,0,0,1,17.23,71.06Zm0-6.81a2.91,2.91,0,1,0,2.9,2.91A2.92,2.92,0,0,0,17.23,64.25Z" transform="translate(0 -10.44)"/><path class="cls-4" d="M37.5,83.86a3.4,3.4,0,1,1-3.42-3.39,3.4,3.4,0,0,1,3.42,3.39h0" transform="translate(0 -10.44)"/><path class="cls-2" d="M34.1,87.75A3.9,3.9,0,1,1,38,83.86,3.9,3.9,0,0,1,34.1,87.75Zm0-6.79A2.9,2.9,0,1,0,37,83.86,2.91,2.91,0,0,0,34.1,81Z" transform="translate(0 -10.44)"/><rect class="cls-2" x="67.08" y="63.83" width="0.99" height="0.5" transform="translate(-25.35 47.48) rotate(-39.69)"/><path class="cls-2" d="M46.26,82.14l-.32-.38,1.5-1.25.32.38Zm3-2.5L49,79.25,50.46,78l.32.38Zm3-2.51L52,76.74l1.51-1.25.32.38Zm3-2.51L55,74.24,56.48,73l.32.39Zm3-2.51L58,71.73l1.5-1.26.32.39Zm3-2.51L61,69.22,62.51,68l.32.38Zm3-2.5L64,66.71l1.51-1.25.32.38Z" transform="translate(0 -10.44)"/><polygon class="cls-2" points="44.38 74.27 43.41 73.42 44.4 72.6 44.72 72.98 44.19 73.43 44.72 73.89 44.38 74.27"/><path class="cls-2" d="M65.55,103.25,64,101.92l.33-.38,1.51,1.33Zm-3-2.65L61,99.27l.32-.37,1.52,1.32ZM59.5,98,58,96.62l.33-.37,1.51,1.32Zm-3-2.65L55,94l.33-.37,1.51,1.32Zm-3-2.65-1.52-1.32.33-.38,1.51,1.32Zm-3-2.65-1.51-1.32.33-.38,1.51,1.33Zm-3-2.65L45.9,86l.32-.38L47.74,87Z" transform="translate(0 -10.44)"/><path class="cls-2" d="M67.78,105.2l-.73-.65.33-.38.73.65Zm-.66-30-.18-.46.92-.36.18.46Z" transform="translate(0 -10.44)"/><path class="cls-2" d="M46.49,83.1l-.18-.47L48,82l.18.47Zm3.43-1.31-.17-.47,1.72-.65.17.47Zm3.44-1.31L53.19,80l1.71-.65.18.47Zm3.44-1.31-.18-.47,1.72-.65.18.46Zm3.44-1.31-.18-.47,1.72-.65.18.46Zm3.44-1.31-.18-.47,1.72-.65.18.46Z" transform="translate(0 -10.44)"/><polygon class="cls-2" points="44.61 74.04 43.13 73.41 44.64 72.83 44.82 73.3 44.47 73.44 44.81 73.58 44.61 74.04"/><path class="cls-2" d="M65.26,93.25l-1.72-.73.2-.46,1.72.73Zm-3.44-1.46-1.72-.73.2-.46,1.72.73Zm-3.44-1.46-1.72-.73.19-.46,1.73.73Zm-3.44-1.46-1.72-.74.19-.46,1.72.74ZM51.5,87.4l-1.73-.73.2-.46,1.72.73Zm-3.45-1.46-1.72-.73.2-.46,1.72.73Z" transform="translate(0 -10.44)"/><rect class="cls-2" x="67.25" y="93.44" width="0.5" height="0.99" transform="translate(-45.19 109.58) rotate(-67.33)"/><path class="cls-2" d="M68,84.11H66.47v-.5H68Zm-3.46,0h-2v-.5h2Zm-4,0h-2v-.5h2Zm-4,0h-2v-.5h2Zm-4,0h-2v-.5h2Zm-4,0h-2v-.5h2Z" transform="translate(0 -10.44)"/><path class="cls-2" d="M21.08,142.45H13.37V59.29h7.71Zm1-84.15h-9.7v85.14h9.7Z" transform="translate(0 -10.44)"/><path class="cls-2" d="M42.81,91.13H35.08V76.6H42.8Zm1-15.52H34.08v16.5h9.7Z" transform="translate(0 -10.44)"/><rect class="cls-4" x="23.82" y="62.73" width="3.86" height="25.78" transform="translate(-45.93 29.91) rotate(-45)"/><path class="cls-2" d="M18,65.86l17.53,17.5-2,2L16,67.86Zm0-1.4-3.43,3.4L33.49,86.79l3.43-3.43Z" transform="translate(0 -10.44)"/><path class="cls-4" d="M23.42,67.16A6.19,6.19,0,1,1,17.23,61h0a6.19,6.19,0,0,1,6.19,6.19" transform="translate(0 -10.44)"/><path class="cls-2" d="M17.23,73.85a6.69,6.69,0,1,1,6.69-6.69A6.69,6.69,0,0,1,17.23,73.85Zm0-12.39a5.7,5.7,0,1,0,5.69,5.7A5.7,5.7,0,0,0,17.23,61.46Z" transform="translate(0 -10.44)"/><path class="cls-4" d="M20.63,67.16a3.4,3.4,0,1,1-3.4-3.4,3.4,3.4,0,0,1,3.4,3.4h0" transform="translate(0 -10.44)"/><path class="cls-2" d="M17.23,71.06a3.9,3.9,0,1,1,3.9-3.9A3.91,3.91,0,0,1,17.23,71.06Zm0-6.81a2.91,2.91,0,1,0,2.9,2.91A2.92,2.92,0,0,0,17.23,64.25Z" transform="translate(0 -10.44)"/><path class="cls-4" d="M37.5,83.86a3.4,3.4,0,1,1-3.42-3.39,3.4,3.4,0,0,1,3.42,3.39h0" transform="translate(0 -10.44)"/><path class="cls-2" d="M34.1,87.75A3.9,3.9,0,1,1,38,83.86,3.9,3.9,0,0,1,34.1,87.75Zm0-6.79A2.9,2.9,0,1,0,37,83.86,2.91,2.91,0,0,0,34.1,81Z" transform="translate(0 -10.44)"/><rect class="cls-2" x="67.08" y="63.83" width="0.99" height="0.5" transform="translate(-25.35 47.48) rotate(-39.69)"/><path class="cls-2" d="M46.26,82.14l-.32-.38,1.5-1.25.32.38Zm3-2.5L49,79.25,50.46,78l.32.38Zm3-2.51L52,76.74l1.51-1.25.32.38Zm3-2.51L55,74.24,56.48,73l.32.39Zm3-2.51L58,71.73l1.5-1.26.32.39Zm3-2.51L61,69.22,62.51,68l.32.38Zm3-2.5L64,66.71l1.51-1.25.32.38Z" transform="translate(0 -10.44)"/><polygon class="cls-2" points="44.38 74.27 43.41 73.42 44.4 72.6 44.72 72.98 44.19 73.43 44.72 73.89 44.38 74.27"/><path class="cls-2" d="M65.55,103.25,64,101.92l.33-.38,1.51,1.33Zm-3-2.65L61,99.27l.32-.37,1.52,1.32ZM59.5,98,58,96.62l.33-.37,1.51,1.32Zm-3-2.65L55,94l.33-.37,1.51,1.32Zm-3-2.65-1.52-1.32.33-.38,1.51,1.32Zm-3-2.65-1.51-1.32.33-.38,1.51,1.33Zm-3-2.65L45.9,86l.32-.38L47.74,87Z" transform="translate(0 -10.44)"/><path class="cls-2" d="M67.78,105.2l-.73-.65.33-.38.73.65Zm-.66-30-.18-.46.92-.36.18.46Z" transform="translate(0 -10.44)"/><path class="cls-2" d="M46.49,83.1l-.18-.47L48,82l.18.47Zm3.43-1.31-.17-.47,1.72-.65.17.47Zm3.44-1.31L53.19,80l1.71-.65.18.47Zm3.44-1.31-.18-.47,1.72-.65.18.46Zm3.44-1.31-.18-.47,1.72-.65.18.46Zm3.44-1.31-.18-.47,1.72-.65.18.46Z" transform="translate(0 -10.44)"/><polygon class="cls-2" points="44.61 74.04 43.13 73.41 44.64 72.83 44.82 73.3 44.47 73.44 44.81 73.58 44.61 74.04"/><path class="cls-2" d="M65.26,93.25l-1.72-.73.2-.46,1.72.73Zm-3.44-1.46-1.72-.73.2-.46,1.72.73Zm-3.44-1.46-1.72-.73.19-.46,1.73.73Zm-3.44-1.46-1.72-.74.19-.46,1.72.74ZM51.5,87.4l-1.73-.73.2-.46,1.72.73Zm-3.45-1.46-1.72-.73.2-.46,1.72.73Z" transform="translate(0 -10.44)"/><rect class="cls-2" x="67.25" y="93.44" width="0.5" height="0.99" transform="translate(-45.19 109.58) rotate(-67.33)"/><path class="cls-2" d="M68,84.11H66.47v-.5H68Zm-3.46,0h-2v-.5h2Zm-4,0h-2v-.5h2Zm-4,0h-2v-.5h2Zm-4,0h-2v-.5h2Zm-4,0h-2v-.5h2Z" transform="translate(0 -10.44)"/><path class="cls-2" d="M182.2,142.45h-7.73V59.29h7.73Zm1-84.15h-9.72v85.14h9.71Z" transform="translate(0 -10.44)"/><path class="cls-2" d="M160.48,91.13h-7.73V76.6h7.73Zm1-15.52h-9.71v16.5h9.71Z" transform="translate(0 -10.44)"/><rect class="cls-4" x="156.94" y="73.68" width="25.78" height="3.86" transform="translate(-3.73 131.79) rotate(-45)"/><path class="cls-2" d="M177.57,65.86l2,2L162.08,85.39l-2-2Zm0-1.4-18.92,18.9,3.43,3.43L181,67.86Z" transform="translate(0 -10.44)"/><path class="cls-4" d="M172.15,67.16A6.19,6.19,0,1,0,178.34,61h0a6.2,6.2,0,0,0-6.18,6.19" transform="translate(0 -10.44)"/><path class="cls-2" d="M178.34,73.85A6.69,6.69,0,1,1,185,67.16,6.7,6.7,0,0,1,178.34,73.85Zm0-12.39a5.7,5.7,0,1,0,5.69,5.7A5.71,5.71,0,0,0,178.34,61.46Z" transform="translate(0 -10.44)"/><path class="cls-4" d="M174.94,67.16a3.4,3.4,0,1,0,3.4-3.4h0a3.41,3.41,0,0,0-3.39,3.4" transform="translate(0 -10.44)"/><path class="cls-2" d="M178.34,71.06a3.9,3.9,0,1,1,3.9-3.9A3.91,3.91,0,0,1,178.34,71.06Zm0-6.81a2.91,2.91,0,1,0,2.9,2.91A2.91,2.91,0,0,0,178.34,64.25Z" transform="translate(0 -10.44)"/><path class="cls-4" d="M158.08,83.86a3.4,3.4,0,1,0,3.41-3.39h0a3.41,3.41,0,0,0-3.4,3.39" transform="translate(0 -10.44)"/><path class="cls-2" d="M161.48,87.76h0a3.89,3.89,0,0,1-3.89-3.9h0a3.9,3.9,0,0,1,6.66-2.74,3.82,3.82,0,0,1,1.13,2.76,3.88,3.88,0,0,1-3.89,3.88Zm-2.91-3.9a2.9,2.9,0,0,0,2.9,2.91h0a2.92,2.92,0,0,0,2.05-.84,2.88,2.88,0,0,0,.85-2.05,2.84,2.84,0,0,0-.84-2.06,2.91,2.91,0,0,0-5,2Z" transform="translate(0 -10.44)"/><polygon class="cls-2" points="128.21 54.14 127.45 53.51 127.77 53.13 128.53 53.76 128.21 54.14"/><path class="cls-2" d="M149.31,82.14l-1.51-1.25.32-.39,1.51,1.25Zm-3-2.51-1.5-1.25.32-.39,1.5,1.26Zm-3-2.5-1.51-1.26.32-.38,1.51,1.25Zm-3-2.51-1.51-1.26.32-.38,1.51,1.25Zm-3-2.51-1.5-1.25.32-.39,1.5,1.26Zm-3-2.51-1.51-1.25.32-.39,1.51,1.26Zm-3-2.5-1.51-1.26.32-.38,1.51,1.25Z" transform="translate(0 -10.44)"/><polygon class="cls-2" points="151.19 74.27 150.85 73.89 151.38 73.43 150.84 72.98 151.16 72.6 152.14 73.41 151.19 74.27"/><path class="cls-2" d="M130,103.24l-.33-.38,1.51-1.32.33.38Zm3-2.65-.33-.37,1.51-1.33.33.38Zm3-2.65-.33-.37,1.51-1.33.33.38Zm3-2.64-.33-.38,1.51-1.32.33.37Zm3-2.65-.33-.38L143.3,91l.33.37Zm3-2.65-.33-.38,1.51-1.32.33.38Zm3-2.65-.33-.37,1.52-1.33.33.38Z" transform="translate(0 -10.44)"/><path class="cls-2" d="M127.78,105.2l-.33-.38.74-.65.34.38Zm.67-30-.92-.36.18-.46.92.36Z" transform="translate(0 -10.44)"/><path class="cls-2" d="M149.07,83.1l-1.72-.65.18-.47,1.72.65Zm-3.43-1.31-1.72-.65.17-.47,1.72.65Zm-3.44-1.31-1.72-.65.17-.47,1.72.65Zm-3.44-1.31L137,78.51l.18-.46,1.72.65Zm-3.44-1.31-1.72-.66.18-.46,1.72.65Zm-3.44-1.31-1.72-.66.18-.46,1.72.65Z" transform="translate(0 -10.44)"/><polygon class="cls-2" points="150.95 74.04 150.75 73.58 151.09 73.43 150.75 73.3 150.93 72.84 152.43 73.41 150.95 74.04"/><path class="cls-2" d="M130.29,93.25l-.19-.46,1.72-.73.2.46Zm3.45-1.46-.2-.46,1.72-.73.2.46Zm3.44-1.46-.2-.46,1.72-.73.2.46Zm3.44-1.46-.19-.46,1.72-.74.19.46Zm3.44-1.47-.19-.46,1.72-.73.19.46Zm3.45-1.46-.2-.46,1.72-.73.2.46Z" transform="translate(0 -10.44)"/><polygon class="cls-2" points="127.71 83.91 127.51 83.45 128.42 83.07 128.62 83.53 127.71 83.91"/><path class="cls-2" d="M148.89,84.11h-2v-.5h2Zm-4,0h-2v-.5h2Zm-4,0h-2v-.5h2Zm-4,0h-2v-.5h2Zm-4,0h-2v-.5h2Zm-4,0h-1.48v-.5h1.48Z" transform="translate(0 -10.44)"/></svg>