<svg id="Ebene_1" data-name="Ebene 1" xmlns="http://www.w3.org/2000/svg" viewBox="0 0 117.27 100.86"><defs><style>.cls-1{fill:#11384b;}.cls-2{fill:#cbcbcc;}.cls-3,.cls-4,.cls-5{fill:none;}.cls-3,.cls-5{stroke:#11384b;stroke-miterlimit:10;}.cls-3{stroke-width:0.74px;}.cls-5{stroke-width:0.79px;stroke-dasharray:1.49 1.49;}</style></defs><path class="cls-1" d="M0,7.29H117.26V6.54H0ZM0,.75H117.26V0H0Z"/><path class="cls-2" d="M84,6.83A4.65,4.65,0,1,1,79.3,2.18h0A4.66,4.66,0,0,1,84,6.83"/><circle class="cls-3" cx="79.3" cy="6.83" r="4.64"/><path class="cls-2" d="M42.64,6.83A4.64,4.64,0,1,1,38,2.18a4.64,4.64,0,0,1,4.64,4.65h0"/><circle class="cls-3" cx="38" cy="6.83" r="4.64"/><path class="cls-2" d="M38.06,9.64a2.81,2.81,0,0,1,0-5.62H79.25a2.81,2.81,0,1,1,0,5.62Z"/><path class="cls-1" d="M79.25,4.39a2.44,2.44,0,0,1,0,4.88H38.06a2.44,2.44,0,1,1,0-4.88h41.2Zm0-.74H38.06a3.18,3.18,0,1,0,0,6.36H79.25a3.18,3.18,0,1,0,0-6.36"/><rect class="cls-2" x="55.72" y="7.07" width="5.87" height="5.87"/><path class="cls-1" d="M61.22,12.58H56.09V7.47h5.13ZM62,6.7H55.35v6.62H62Z"/><rect class="cls-2" x="55.72" y="22.02" width="5.87" height="5.87"/><path class="cls-1" d="M61.22,27.52H56.09V22.39h5.13ZM62,21.65H55.35v6.61H62Z"/><line class="cls-4" x1="58.66" y1="12.57" x2="58.66" y2="24.95"/><rect class="cls-1" x="58.29" y="12.57" width="0.74" height="12.38"/><path class="cls-1" d="M57.9,25a.76.76,0,1,0,.76-.76h0a.76.76,0,0,0-.76.76"/><polygon class="cls-2" points="97.3 62.34 20 62.34 20 68.71 23.14 68.71 23.14 99.99 94.16 99.99 94.16 68.71 97.3 68.71 97.3 62.34"/><path class="cls-1" d="M94.54,100.37H22.77V69.08H19.64V62h78v7.1h-3.1Zm-71-.75H93.79V68.34h3.14V62.72H20.35v5.62h3.12Z"/><path class="cls-2" d="M23.14,75.47c2.21,0,2.21,2.1,4.43,2.1s2.22-2.1,4.44-2.1,2.22,2.11,4.44,2.11,2.22-2.11,4.44-2.11,2.22,2.1,4.46,2.1,2.2-2.1,4.42-2.1S52,77.58,54.2,77.58s2.22-2.11,4.44-2.11,2.22,2.11,4.44,2.11,2.27-2.11,4.44-2.11,2.22,2.11,4.44,2.11,2.22-2.11,4.44-2.11,2.21,2.11,4.43,2.11,2.22-2.11,4.45-2.11,2.22,2.11,4.44,2.11,2.22-2.11,4.44-2.11"/><path class="cls-1" d="M89.72,77.94a3.31,3.31,0,0,1-2.48-1.15,2.5,2.5,0,0,0-3.5-.44,2.55,2.55,0,0,0-.43.44,3.24,3.24,0,0,1-4.57.38,2.28,2.28,0,0,1-.38-.38,2.5,2.5,0,0,0-3.5-.44,2.55,2.55,0,0,0-.43.44,3.25,3.25,0,0,1-4.57.44,3,3,0,0,1-.43-.44,2.5,2.5,0,0,0-3.5-.44,2.55,2.55,0,0,0-.43.44,3.25,3.25,0,0,1-4.57.44,3,3,0,0,1-.43-.44A2.48,2.48,0,0,0,57,76.35a2.29,2.29,0,0,0-.44.44,3.24,3.24,0,0,1-4.57.38,2.28,2.28,0,0,1-.38-.38,2.5,2.5,0,0,0-3.5-.44,2.55,2.55,0,0,0-.43.44,3.25,3.25,0,0,1-4.57.44,3,3,0,0,1-.43-.44,2.48,2.48,0,0,0-3.48-.44,2.29,2.29,0,0,0-.44.44,3.24,3.24,0,0,1-4.57.38,2.28,2.28,0,0,1-.38-.38,2.5,2.5,0,0,0-3.5-.44,2.55,2.55,0,0,0-.43.44,3.25,3.25,0,0,1-4.57.44,3,3,0,0,1-.43-.44,2.58,2.58,0,0,0-2-1v-.74a3.28,3.28,0,0,1,2.47,1.16,2.49,2.49,0,0,0,3.52.4,2.59,2.59,0,0,0,.41-.4,3.21,3.21,0,0,1,4.52-.47,3.55,3.55,0,0,1,.48.47,2.5,2.5,0,0,0,3.51.41,2.65,2.65,0,0,0,.41-.41,3.38,3.38,0,0,1,5.13,0,2.49,2.49,0,0,0,3.52.4,2.59,2.59,0,0,0,.41-.4,3.21,3.21,0,0,1,4.52-.47,3.55,3.55,0,0,1,.48.47,2.5,2.5,0,0,0,3.51.41,2.65,2.65,0,0,0,.41-.41,3.32,3.32,0,0,1,2.48-1.16,3.28,3.28,0,0,1,2.47,1.16,2.49,2.49,0,0,0,3.52.4,2.59,2.59,0,0,0,.41-.4,3.21,3.21,0,0,1,4.52-.47,3.55,3.55,0,0,1,.48.47,2.49,2.49,0,0,0,3.52.4,2.59,2.59,0,0,0,.41-.4,3.21,3.21,0,0,1,4.52-.47,3.55,3.55,0,0,1,.48.47,2.49,2.49,0,0,0,3.52.4,2.59,2.59,0,0,0,.41-.4,3.21,3.21,0,0,1,4.52-.47,3.55,3.55,0,0,1,.48.47,2.51,2.51,0,0,0,3.54.4,3,3,0,0,0,.4-.4,3.28,3.28,0,0,1,2.47-1.16v.74a2.56,2.56,0,0,0-2,1A3.31,3.31,0,0,1,89.72,77.94Z"/><line class="cls-4" x1="26.85" y1="68.71" x2="90.45" y2="68.71"/><rect class="cls-1" x="26.85" y="68.34" width="63.6" height="0.74"/><path class="cls-2" d="M73.4,29.24c0-.67-6.6-1.21-14.74-1.21s-14.75.54-14.75,1.21V51c0,.67,6.6,1.84,14.75,1.84S73.4,51.64,73.4,51Z"/><path class="cls-1" d="M58.66,53.21c-5.44,0-15.15-.75-15.15-2.24V29.24c0-1.4,9.49-1.61,15.15-1.61s15.14.21,15.14,1.61V51C73.8,52.47,64.09,53.21,58.66,53.21ZM44.35,50.85c.78.49,6.33,1.56,14.35,1.56S72.27,51.34,73,50.85V29.38c-.87-.41-6.09-.91-14.38-.91s-13.52.54-14.35,1Z"/><line class="cls-4" x1="34.61" y1="28.78" x2="34.61" y2="52.84"/><rect class="cls-1" x="34.24" y="28.78" width="0.74" height="23.26"/><polygon class="cls-1" points="31.57 49.57 32.12 49.07 34.6 51.75 37.1 49.07 37.65 49.57 34.6 52.84 31.57 49.57"/><path class="cls-5" d="M61.25,38.39C71.7,38.47,80,39.88,80,41.61s-8.8,3.22-19.69,3.22"/><polygon class="cls-1" points="64.27 41.74 64.83 41.18 62.05 38.42 65 35.86 64.47 35.26 60.9 38.39 64.27 41.74"/><path class="cls-5" d="M57.68,44.82c-10.46-.07-18.82-1.48-18.82-3.21s8.8-3.22,19.66-3.22"/><polygon class="cls-1" points="55.16 41.47 54.59 42.03 57.38 44.78 54.42 47.35 54.95 47.95 58.53 44.82 55.16 41.47"/><path class="cls-1" d="M57.67,45.22c-6.63,0-19.18-.86-19.18-3.61s12-3.62,20-3.62v.79c-11.76,0-19.26,1.68-19.26,2.83s6.15,2.73,18.4,2.82Z"/><polygon class="cls-1" points="54.59 42.03 57.37 44.78 54.42 47.35 54.95 47.95 58.53 44.82 55.16 41.47 54.59 42.03"/><path class="cls-1" d="M60.86,45.22v-.75c11.75,0,19.26-1.67,19.26-2.82S74,38.91,61.71,38.83V38c6.64,0,19.19.86,19.19,3.61S69,45.22,60.86,45.22Z"/><rect class="cls-1" y="99.8" width="117.27" height="1.06"/></svg>